<?xml version="1.0" standalone="no"?>
<!DOCTYPE svg PUBLIC "-//W3C//DTD SVG 20010904//EN"
 "http://www.w3.org/TR/2001/REC-SVG-20010904/DTD/svg10.dtd">
<svg version="1.0" xmlns="http://www.w3.org/2000/svg"
 width="3000.000000pt" height="893.000000pt" viewBox="0 0 3000.000000 893.000000"
 preserveAspectRatio="xMidYMid meet">

<g transform="translate(0.000000,893.000000) scale(0.100000,-0.100000)"
fill="#000000" stroke="none">
<path d="M20100 8771 c-93 -29 -188 -117 -210 -196 -7 -27 -11 -72 -8 -110 l6
-64 -47 -48 c-58 -60 -87 -140 -77 -211 12 -93 62 -165 172 -250 19 -15 25
-25 17 -28 -18 -8 -6 -55 19 -76 18 -16 22 -16 51 -2 35 19 58 39 51 46 -2 3
31 8 73 11 43 3 103 15 134 26 131 50 215 197 180 318 -8 29 -6 34 30 63 80
64 115 181 85 284 -29 97 -138 196 -255 230 -56 17 -177 20 -221 7z m220 -20
c3 -3 11 -6 18 -7 30 -2 35 -4 28 -11 -4 -4 8 -13 26 -19 21 -7 32 -17 30 -27
-1 -8 2 -18 8 -22 6 -4 7 1 3 11 -4 12 -2 15 8 12 8 -3 14 -12 14 -21 0 -9 7
-22 15 -29 12 -11 12 -11 1 5 -7 9 -9 17 -3 17 14 0 33 -26 24 -34 -4 -4 0 -6
8 -4 9 2 16 -6 18 -20 2 -12 7 -20 12 -17 4 3 11 -2 14 -11 4 -9 2 -13 -5 -8
-8 4 -9 -1 -3 -17 17 -49 8 -116 -20 -149 -14 -17 -26 -38 -26 -46 0 -7 -11
-16 -24 -20 -14 -3 -32 -14 -42 -25 -9 -10 -26 -19 -36 -19 -11 0 -28 -4 -38
-10 -18 -10 -137 -15 -175 -8 -37 8 -95 32 -95 40 0 4 -4 8 -10 8 -16 0 -88
54 -94 70 -3 8 -10 22 -15 30 -30 46 -43 93 -38 137 3 26 10 49 16 51 6 2 8 8
5 13 -8 14 44 79 62 79 8 0 13 4 10 9 -6 10 42 34 54 26 4 -3 10 2 13 9 3 8
23 17 44 19 47 6 186 -3 193 -12z"/>
<path d="M20150 8652 c-32 -15 -36 -22 -44 -75 -9 -55 -8 -59 20 -88 36 -37
104 -72 133 -67 28 4 28 22 0 26 -34 6 -96 48 -101 70 -3 11 0 31 6 44 10 20
21 24 83 28 109 8 122 40 27 68 -54 16 -82 15 -124 -6z"/>
<path d="M9675 8282 c-59 -20 -118 -59 -110 -73 4 -5 0 -6 -8 -3 -19 7 -72
-77 -87 -138 -9 -33 -9 -60 -2 -94 10 -44 9 -49 -11 -63 -92 -65 -135 -185
-103 -293 19 -68 61 -126 125 -175 47 -36 49 -40 44 -78 -6 -51 12 -70 61 -61
36 7 80 45 55 48 -8 0 31 4 86 8 84 5 110 11 161 38 89 45 136 106 154 200 5
28 5 64 0 88 -9 38 -8 40 39 81 63 55 94 126 94 210 -1 79 -27 135 -97 201
-113 107 -272 149 -401 104z m197 -4 c50 -12 51 -13 23 -19 -27 -7 -26 -7 10
-6 42 0 105 -26 105 -44 0 -6 4 -8 8 -5 5 3 29 -16 53 -41 24 -25 38 -43 32
-39 -7 4 -13 3 -13 -2 0 -5 9 -12 21 -15 13 -4 19 -12 18 -24 -2 -10 0 -29 3
-43 4 -14 -1 -54 -11 -89 -16 -58 -22 -67 -69 -101 -29 -20 -50 -39 -47 -41 2
-3 -4 -5 -13 -6 -9 -1 -46 -7 -82 -13 -71 -12 -151 -7 -196 12 -45 20 -130 85
-150 116 -31 45 -47 85 -49 122 0 19 -5 44 -10 54 -6 14 -5 17 3 12 8 -5 12 0
12 14 0 12 4 19 9 16 5 -4 7 4 3 16 -3 13 -1 19 6 15 5 -4 20 9 32 28 44 72
184 110 302 83z"/>
<path d="M9785 8181 c-48 -12 -87 -58 -93 -109 -4 -41 -2 -46 34 -79 47 -42
109 -73 135 -66 27 7 24 23 -4 23 -26 0 -95 57 -98 80 -5 48 2 71 25 81 29 13
136 3 136 -13 0 -5 11 -23 25 -40 l25 -30 0 35 c0 38 -25 67 -58 67 -15 0 -22
6 -22 19 0 12 -11 23 -31 30 -18 6 -35 11 -38 10 -3 -1 -20 -4 -36 -8z"/>
<path d="M25610 7769 c-92 -18 -168 -73 -217 -157 -21 -36 -26 -57 -26 -113
l0 -68 -39 -26 c-50 -33 -94 -102 -109 -171 -22 -97 25 -211 121 -298 39 -35
41 -38 27 -60 -28 -42 15 -91 61 -70 20 9 28 11 43 13 6 0 9 10 6 21 -4 17 -2
19 21 13 51 -14 166 -8 221 11 63 22 133 82 164 141 14 27 22 62 23 109 2 59
6 70 26 84 128 85 173 227 112 351 -30 59 -108 141 -169 176 -44 25 -137 50
-157 42 -7 -3 -3 -6 9 -6 34 -1 134 -41 128 -51 -3 -5 0 -12 6 -16 8 -4 9 -3
5 4 -9 15 -1 15 27 1 32 -18 118 -109 112 -120 -4 -5 -2 -9 3 -9 5 0 14 -12
20 -26 7 -14 8 -23 2 -19 -5 3 -10 -1 -10 -9 0 -8 5 -18 10 -21 6 -3 10 -16
10 -28 0 -18 -2 -19 -11 -7 -7 12 -9 8 -8 -15 3 -34 -18 -95 -32 -95 -5 0 -9
-5 -9 -11 0 -14 -41 -48 -58 -49 -7 0 -24 -7 -38 -16 -31 -21 -179 -24 -241
-6 -64 19 -164 99 -190 152 -13 25 -23 53 -23 63 0 10 -4 15 -10 12 -16 -10
-12 56 8 113 10 29 22 49 27 44 4 -4 5 -1 1 6 -4 7 -1 12 9 12 9 0 14 4 10 10
-9 14 64 58 120 71 28 6 64 15 80 19 27 7 27 8 5 8 -14 0 -45 -4 -70 -9z"/>
<path d="M14783 7672 c-143 -51 -235 -209 -192 -331 11 -31 10 -34 -24 -62
-56 -46 -87 -119 -87 -203 1 -109 47 -189 149 -258 60 -40 57 -38 43 -46 -18
-12 4 -82 26 -83 61 -4 98 17 87 50 -4 14 8 16 78 16 91 1 148 20 216 74 74
59 120 193 92 272 -11 31 -9 34 30 67 79 67 109 186 77 296 -17 56 -116 154
-194 191 -79 38 -221 46 -301 17z m223 -3 c24 -6 44 -15 44 -20 0 -5 7 -5 17
-2 11 4 14 3 9 -5 -4 -7 -2 -10 7 -7 7 3 25 -5 40 -19 14 -13 28 -21 31 -18 3
3 6 0 6 -6 0 -6 9 -14 20 -17 11 -3 20 -14 20 -23 0 -9 5 -24 11 -32 9 -12 10
-12 5 4 -6 16 -4 17 9 6 8 -7 14 -18 13 -24 -1 -6 1 -24 5 -41 4 -16 9 -40 12
-53 5 -28 -23 -104 -36 -96 -5 3 -9 -2 -9 -10 0 -20 -43 -60 -100 -94 -41 -24
-54 -27 -150 -27 -92 0 -111 3 -150 24 -103 54 -171 133 -173 198 -1 18 -5 33
-10 33 -5 0 -6 12 -2 28 4 15 8 34 9 44 1 9 7 22 13 30 5 7 13 21 16 31 4 11
12 15 18 11 8 -4 9 -3 5 4 -4 6 6 19 21 29 15 10 30 20 33 23 3 3 25 12 50 19
25 7 50 15 55 16 25 8 120 4 161 -6z"/>
<path d="M14855 7558 c-54 -32 -67 -78 -40 -145 19 -46 80 -76 146 -71 64 5
60 25 -7 30 -69 6 -87 24 -78 78 10 57 31 73 84 65 25 -3 53 -8 63 -11 12 -4
17 0 17 17 0 12 -8 28 -17 35 -22 17 -140 18 -168 2z"/>
<path d="M15050 7450 c0 -29 4 -40 15 -40 11 0 15 11 15 40 0 29 -4 40 -15 40
-11 0 -15 -11 -15 -40z"/>
<path d="M25665 7653 c-33 -9 -65 -52 -71 -96 -6 -38 -2 -46 32 -86 41 -46 86
-71 129 -71 22 0 24 2 13 13 -7 6 -30 21 -50 32 -67 35 -86 115 -31 136 38 14
131 11 140 -5 5 -9 15 -11 28 -6 18 7 19 8 3 15 -10 4 -18 13 -18 21 0 7 -12
16 -27 20 -16 3 -37 9 -48 14 -29 13 -77 19 -100 13z"/>
<path d="M25852 7539 c2 -7 10 -15 17 -17 8 -3 12 1 9 9 -2 7 -10 15 -17 17
-8 3 -12 -1 -9 -9z"/>
<path d="M4199 7450 c-100 -17 -198 -92 -240 -184 -20 -45 -25 -120 -9 -161 9
-24 5 -31 -38 -73 -77 -75 -102 -181 -66 -286 16 -47 97 -140 157 -179 20 -14
27 -26 26 -45 -4 -50 1 -62 27 -68 39 -10 113 33 93 53 -6 6 17 10 64 10 131
0 245 59 303 158 29 50 41 133 26 186 -9 34 -7 37 30 68 79 66 114 182 85 282
-13 42 -29 67 -72 110 -68 68 -130 103 -216 124 -69 16 -99 17 -170 5z m169
-19 c83 -23 138 -53 175 -94 16 -18 26 -26 22 -19 -12 24 4 12 26 -20 13 -17
18 -28 11 -24 -7 4 -12 3 -12 -2 0 -6 7 -13 16 -16 14 -6 16 -18 11 -85 -8
-127 -61 -183 -200 -215 -85 -20 -117 -20 -187 0 -30 8 -60 16 -67 18 -16 3
-93 64 -114 91 -9 11 -26 31 -38 44 -18 21 -25 50 -25 111 1 8 4 26 8 39 6 17
5 22 -4 16 -13 -8 21 44 54 82 27 32 92 65 156 79 76 17 91 17 168 -5z"/>
<path d="M4485 7350 c-3 -6 1 -7 9 -4 18 7 21 14 7 14 -6 0 -13 -4 -16 -10z"/>
<path d="M4208 7315 c-35 -23 -36 -27 -34 -79 2 -59 24 -102 59 -116 76 -30
111 -34 127 -15 15 18 5 23 -52 28 -51 5 -78 31 -78 75 0 48 22 61 102 62 65
0 66 -1 77 -30 13 -39 41 -40 41 -2 0 35 -25 72 -49 72 -10 0 -24 7 -31 15
-21 26 -118 20 -162 -10z"/>
<path d="M4360 7240 c0 -5 4 -10 9 -10 6 0 13 5 16 10 3 6 -1 10 -9 10 -9 0
-16 -4 -16 -10z"/>
<path d="M20475 7406 c-39 -18 -70 -52 -90 -98 -11 -28 -15 -75 -15 -193 l0
-155 -97 0 c-286 -1 -1360 -31 -1393 -40 -43 -12 -93 -47 -85 -61 4 -5 0 -6
-8 -3 -20 7 -67 -66 -84 -129 -10 -39 -12 -95 -8 -222 3 -93 10 -393 15 -665
33 -1652 40 -1964 45 -2140 3 -107 7 -348 10 -535 6 -376 13 -508 25 -500 4 3
6 -3 3 -13 -5 -21 60 -118 77 -114 6 1 9 -2 6 -7 -8 -12 32 -37 88 -56 39 -14
100 -14 488 -5 244 5 684 14 978 20 416 9 545 15 580 26 51 16 115 68 105 84
-4 6 -1 9 6 8 6 -2 24 19 38 47 l26 50 -2 260 c-2 143 -9 577 -18 965 -8 388
-20 937 -26 1220 -6 283 -16 763 -23 1065 l-13 550 -24 50 c-14 28 -31 49 -38
47 -7 -1 -10 2 -7 7 7 10 -42 61 -58 61 -5 0 1 -12 15 -27 l24 -28 -27 24
c-15 13 -26 28 -25 34 4 17 -66 35 -140 36 -50 1 -73 -3 -73 -11 0 -6 -3 -8
-7 -4 -5 4 -10 80 -13 169 -6 182 -17 218 -77 264 -42 32 -130 42 -178 19z
m398 -453 c-7 -2 -19 -2 -25 0 -7 3 -2 5 12 5 14 0 19 -2 13 -5z m-796 -19
c-3 -3 -12 -4 -19 -1 -8 3 -5 6 6 6 11 1 17 -2 13 -5z m899 -64 c0 -12 -4 -16
-9 -11 -5 5 -6 14 -3 20 10 15 12 14 12 -9z m39 -18 c-3 -3 -11 0 -18 7 -9 10
-8 11 6 5 10 -3 15 -9 12 -12z m-220 -172 c20 -1 25 -4 14 -8 -13 -6 -10 -13
19 -42 21 -20 33 -27 29 -17 -4 11 -3 16 4 12 6 -4 8 -13 5 -21 -3 -8 -1 -27
5 -42 17 -41 63 -2235 49 -2285 -13 -44 -61 -101 -104 -124 -33 -18 -5 -17
-1166 -43 -461 -10 -519 -10 -552 4 -36 16 -108 81 -108 98 0 5 -3 7 -7 5 -5
-3 -8 5 -9 16 -2 50 -25 1038 -34 1477 -5 261 -12 537 -15 613 -5 144 5 219
32 249 8 9 12 22 7 29 -5 8 -3 10 5 4 7 -4 22 1 34 13 40 38 74 42 356 48 152
4 407 10 566 14 240 6 752 6 870 0z m79 -20 c-6 -6 -10 -3 -10 10 0 13 4 16
10 10 7 -7 7 -13 0 -20z m-1967 -517 c-3 -10 -5 -4 -5 12 0 17 2 24 5 18 2 -7
2 -21 0 -30z m2220 -1125 c-3 -8 -6 -5 -6 6 -1 11 2 17 5 13 3 -3 4 -12 1 -19z
m5 -490 c-8 -8 -9 -4 -5 13 4 13 8 18 11 10 2 -7 -1 -18 -6 -23z m-211 -311
c-10 -9 -11 -8 -5 6 3 10 9 15 12 12 3 -3 0 -11 -7 -18z m-1921 -78 c0 -6 -4
-7 -10 -4 -5 3 -10 11 -10 16 0 6 5 7 10 4 6 -3 10 -11 10 -16z m97 -45 c-3
-3 -12 -4 -19 -1 -8 3 -5 6 6 6 11 1 17 -2 13 -5z m1368 -174 c-10 -11 -21
-17 -24 -14 -3 3 3 12 13 20 28 20 32 17 11 -6z m320 -24 c67 -28 94 -118 59
-192 -25 -52 -52 -61 -214 -68 -121 -6 -150 -4 -174 8 -15 9 -33 13 -40 9 -6
-3 -8 -3 -4 2 4 4 -2 25 -12 46 -33 64 -22 127 30 174 19 17 41 21 149 26 69
3 136 6 149 7 12 1 38 -4 57 -12z m-629 -39 c66 -60 56 -171 -19 -217 -28 -17
-51 -20 -183 -20 -138 0 -154 2 -178 21 -57 45 -70 111 -35 180 30 60 58 68
232 69 l147 0 36 -33z m54 8 c14 -19 14 -19 -2 -6 -10 7 -18 18 -18 24 0 6 1
8 3 6 1 -2 9 -13 17 -24z m-732 -5 c80 -49 80 -181 0 -234 -31 -20 -323 -25
-353 -6 -33 20 -57 59 -62 100 -7 51 1 80 31 115 22 26 33 30 103 35 167 14
246 11 281 -10z m213 -23 c-10 -9 -11 -8 -5 6 3 10 9 15 12 12 3 -3 0 -11 -7
-18z m537 -128 c-3 -8 -7 -3 -11 10 -4 17 -3 21 5 13 5 -5 8 -16 6 -23z m644
-1 c-8 -8 -9 -4 -5 13 4 13 8 18 11 10 2 -7 -1 -18 -6 -23z m-1295 -50 c-3 -7
-5 -2 -5 12 0 14 2 19 5 13 2 -7 2 -19 0 -25z m-800 -115 c-2 -21 -4 -4 -4 37
0 41 2 58 4 38 2 -21 2 -55 0 -75z m1378 77 c-3 -5 -12 -10 -18 -10 -7 0 -6 4
3 10 19 12 23 12 15 0z m322 4 c-3 -3 -12 -4 -19 -1 -8 3 -5 6 6 6 11 1 17 -2
13 -5z m160 -10 c-3 -3 -12 -4 -19 -1 -8 3 -5 6 6 6 11 1 17 -2 13 -5z m177
-155 c76 -60 73 -181 -6 -229 -29 -18 -50 -20 -185 -20 -147 0 -152 1 -181 25
-16 13 -32 22 -35 19 -3 -3 -5 1 -4 8 1 7 -3 30 -7 51 -10 44 7 107 34 132 30
27 70 33 216 34 129 1 144 -1 168 -20z m-679 -3 c46 -20 75 -69 75 -127 0 -40
-5 -52 -37 -87 l-38 -40 -150 -6 c-171 -7 -202 2 -237 65 -23 41 -20 119 6
148 10 11 14 26 10 37 -4 14 -3 16 4 5 6 -9 15 -10 23 -5 12 8 116 17 262 22
26 1 63 -4 82 -12z m-1025 -10 c0 -3 -4 -8 -10 -11 -5 -3 -10 -1 -10 4 0 6 5
11 10 11 6 0 10 -2 10 -4z m374 -8 c39 -17 70 -89 62 -145 -8 -63 -48 -98
-119 -107 -90 -10 -260 -7 -287 7 -88 45 -93 185 -7 237 28 17 51 20 179 20
90 0 157 -4 172 -12z m83 -90 c-3 -8 -6 -5 -6 6 -1 11 2 17 5 13 3 -3 4 -12 1
-19z m770 -50 c-3 -7 -5 -2 -5 12 0 14 2 19 5 13 2 -7 2 -19 0 -25z m-137 -78
c0 -5 -5 -10 -11 -10 -5 0 -7 5 -4 10 3 6 8 10 11 10 2 0 4 -4 4 -10z m-418
-27 c-6 -2 -9 -10 -6 -15 4 -7 2 -8 -5 -4 -13 9 -5 26 12 25 9 0 8 -2 -1 -6z
m851 -10 c-7 -2 -19 -2 -25 0 -7 3 -2 5 12 5 14 0 19 -2 13 -5z m524 -80 c-3
-10 -5 -4 -5 12 0 17 2 24 5 18 2 -7 2 -21 0 -30z m-1850 -39 c-3 -3 -12 -4
-19 -1 -8 3 -5 6 6 6 11 1 17 -2 13 -5z m726 -1 c-7 -2 -19 -2 -25 0 -7 3 -2
5 12 5 14 0 19 -2 13 -5z m793 -28 c47 -30 68 -120 40 -173 -33 -63 -48 -69
-207 -77 -162 -7 -203 1 -234 49 -25 37 -30 106 -12 142 32 63 47 68 191 75
148 6 192 3 222 -16z m-1549 9 c-3 -3 -12 -4 -19 -1 -8 3 -5 6 6 6 11 1 17 -2
13 -5z m871 -10 c30 -8 72 -82 72 -125 0 -48 -31 -101 -71 -121 -28 -15 -61
-17 -202 -17 -92 1 -170 5 -173 10 -3 5 3 6 13 2 13 -5 11 1 -10 26 -33 39
-41 69 -34 122 6 46 29 76 72 95 31 14 288 20 333 8z m-658 -19 c35 -18 70
-81 70 -124 0 -47 -29 -97 -66 -114 -40 -20 -319 -26 -352 -8 -34 18 -62 74
-62 122 1 85 45 126 141 132 167 9 240 7 269 -8z m237 -162 c-4 -3 -1 -13 6
-22 11 -14 10 -14 -5 -2 -21 15 -23 31 -6 31 6 0 8 -3 5 -7z m1134 -68 c8 5
11 4 6 -1 -5 -5 -19 -9 -32 -9 -19 -1 -22 2 -13 13 8 10 13 10 18 1 5 -7 14
-8 21 -4z m306 -57 c-3 -8 -6 -5 -6 6 -1 11 2 17 5 13 3 -3 4 -12 1 -19z m-11
-50 c-9 -12 -16 -19 -16 -15 0 11 24 47 28 42 2 -2 -3 -14 -12 -27z m-92 -104
c3 -8 2 -12 -4 -9 -6 3 -10 10 -10 16 0 14 7 11 14 -7z m-1811 -71 c-7 -2 -19
-2 -25 0 -7 3 -2 5 12 5 14 0 19 -2 13 -5z m730 0 c-13 -2 -33 -2 -45 0 -13 2
-3 4 22 4 25 0 35 -2 23 -4z m300 0 c-7 -2 -21 -2 -30 0 -10 3 -4 5 12 5 17 0
24 -2 18 -5z"/>
<path d="M8966 6788 c3 -46 18 -366 35 -712 16 -346 30 -631 32 -632 3 -4 197
29 265 44 23 6 54 17 67 26 54 36 54 27 34 456 -9 217 -21 483 -25 590 -4 107
-7 203 -8 214 -1 14 -21 27 -73 48 -91 36 -155 48 -254 48 l-78 0 5 -82z m411
-805 c-3 -10 -5 -4 -5 12 0 17 2 24 5 18 2 -7 2 -21 0 -30z m13 -426 c0 -2
-10 -12 -21 -23 -22 -19 -22 -19 -10 4 10 18 31 31 31 19z"/>
<path d="M8825 6821 c-32 -10 -107 -52 -143 -79 -25 -19 -30 -27 -20 -35 9 -6
7 -7 -6 -3 -22 8 -90 -50 -79 -67 3 -6 2 -7 -4 -4 -14 9 -91 -74 -197 -210
-76 -99 -85 -115 -76 -134 7 -11 9 -23 7 -26 -3 -2 -8 5 -12 16 -3 12 -11 19
-16 15 -6 -3 -8 -13 -5 -21 3 -8 2 -11 -4 -8 -10 6 -42 -91 -61 -187 -19 -92
-16 -425 5 -578 9 -69 21 -163 26 -210 19 -166 79 -520 116 -685 34 -152 45
-201 51 -215 3 -8 7 -22 8 -30 30 -203 339 -1121 374 -1113 6 2 8 -3 5 -10 -7
-20 84 -218 161 -347 139 -234 227 -370 235 -365 5 3 12 0 16 -6 4 -8 3 -9 -4
-5 -19 12 -14 -8 11 -42 13 -17 27 -29 31 -25 4 4 5 1 2 -7 -6 -17 67 -126 82
-123 5 1 9 -5 8 -15 0 -9 5 -16 12 -14 8 1 11 -2 7 -8 -3 -5 4 -24 16 -41 12
-18 24 -26 28 -20 4 6 12 1 20 -12 13 -20 13 -21 -2 -8 -25 20 -20 5 13 -44
41 -59 81 -88 165 -118 128 -45 362 -59 616 -36 185 17 177 7 106 117 -44 69
-62 90 -69 80 -7 -10 -8 -8 -4 5 7 22 -111 210 -127 200 -6 -3 -7 -1 -3 5 10
16 -12 54 -26 46 -7 -4 -8 -3 -4 4 6 9 -85 165 -127 217 -8 11 -15 22 -163
255 -55 85 -102 155 -105 155 -4 0 -17 9 -30 20 l-22 20 7 -20 c5 -14 4 -17
-4 -9 -6 6 -8 18 -4 27 5 15 8 14 25 -6 29 -34 22 -7 -10 37 l-28 39 -71 -2
c-86 -3 -142 19 -189 72 -19 21 -33 31 -36 24 -2 -7 -4 -1 -4 13 0 14 -21 93
-47 175 -27 83 -61 193 -76 245 -16 52 -45 149 -65 215 -20 66 -53 179 -75
250 -93 315 -106 355 -113 348 -5 -4 -5 0 -2 8 3 9 -14 83 -39 165 -137 456
-140 466 -125 534 13 62 52 112 112 145 56 31 53 -25 28 485 -11 212 -23 459
-26 550 -4 91 -8 176 -11 190 -2 13 -4 68 -5 122 -1 105 -2 106 -54 89z m-354
-314 c-10 -9 -11 -8 -5 6 3 10 9 15 12 12 3 -3 0 -11 -7 -18z m-121 -161 c0
-3 -4 -8 -10 -11 -5 -3 -10 -1 -10 4 0 6 5 11 10 11 6 0 10 -2 10 -4z m-123
-788 c-2 -13 -4 -5 -4 17 -1 22 1 32 4 23 2 -10 2 -28 0 -40z m450 -2010 c-3
-7 -5 -2 -5 12 0 14 2 19 5 13 2 -7 2 -19 0 -25z m937 -380 c-3 -4 -11 -5 -19
-1 -21 7 -19 12 4 10 11 0 18 -5 15 -9z m-735 -98 c0 -10 -3 -8 -9 5 -12 27
-12 43 0 25 5 -8 9 -22 9 -30z m821 -20 c6 -11 8 -20 6 -20 -3 0 -10 9 -16 20
-6 11 -8 20 -6 20 3 0 10 -9 16 -20z m-661 -265 c0 -5 -6 1 -14 15 -8 14 -14
30 -14 35 0 6 6 -1 14 -15 8 -14 14 -29 14 -35z m905 -165 c-5 -5 -10 3 -11
18 -1 22 0 24 9 8 6 -10 6 -22 2 -26z m76 -70 c6 -11 8 -20 6 -20 -3 0 -10 9
-16 20 -6 11 -8 20 -6 20 3 0 10 -9 16 -20z m-780 -40 c6 -11 8 -20 6 -20 -3
0 -10 9 -16 20 -6 11 -8 20 -6 20 3 0 10 -9 16 -20z m824 -26 c3 -8 2 -12 -4
-9 -6 3 -10 10 -10 16 0 14 7 11 14 -7z m28 -66 c-7 -7 -12 -8 -12 -2 0 14 12
26 19 19 2 -3 -1 -11 -7 -17z m-532 -338 c18 -12 2 -12 -25 0 -13 6 -15 9 -5
9 8 0 22 -4 30 -9z"/>
<path d="M25034 5971 c-107 -13 -155 -22 -150 -29 2 -4 -15 -8 -38 -8 -22 -1
-83 -16 -135 -33 -242 -83 -471 -232 -631 -412 -117 -131 -175 -212 -165 -230
4 -5 1 -8 -5 -7 -14 3 -86 -133 -126 -235 -61 -158 -104 -385 -104 -547 0 -89
25 -271 51 -372 79 -313 291 -630 550 -825 46 -35 46 -36 74 -152 62 -267 174
-702 195 -761 5 -14 28 -85 50 -159 67 -215 144 -397 198 -470 16 -21 27 -29
32 -22 5 9 11 7 20 -4 11 -13 10 -15 -4 -9 -9 3 -16 1 -16 -5 0 -14 35 -32 45
-23 5 4 5 2 1 -5 -10 -19 37 -27 76 -14 42 15 102 66 94 80 -4 6 -1 9 6 6 8
-3 34 25 66 69 53 74 62 93 40 80 -8 -4 -10 -3 -5 2 5 5 13 9 19 9 31 0 275
467 517 990 l93 201 82 42 c160 81 265 159 394 289 79 79 122 129 118 138 -3
8 0 14 5 12 26 -5 196 280 185 310 -3 8 -2 12 3 9 5 -3 11 2 14 12 3 9 16 46
30 82 110 294 110 675 0 988 -18 52 -29 69 -35 60 -6 -9 -7 -6 -3 9 7 25 -64
174 -129 268 -68 101 -164 211 -234 272 -37 32 -78 68 -92 81 -14 12 -31 20
-38 17 -7 -3 -11 -1 -7 4 3 5 -8 19 -24 30 -36 26 -48 27 -30 4 13 -16 12 -17
-3 -4 -10 7 -15 17 -13 22 7 11 -137 90 -153 84 -7 -3 -11 -1 -8 4 7 10 -141
72 -242 101 -165 48 -407 69 -568 51z m399 -48 c-7 -2 -19 -2 -25 0 -7 3 -2 5
12 5 14 0 19 -2 13 -5z m50 0 c-7 -2 -19 -2 -25 0 -7 3 -2 5 12 5 14 0 19 -2
13 -5z m-36 -19 c-3 -3 -12 -4 -19 -1 -8 3 -5 6 6 6 11 1 17 -2 13 -5z m280
-60 c-3 -3 -12 -4 -19 -1 -8 3 -5 6 6 6 11 1 17 -2 13 -5z m228 -94 c3 -6 -1
-7 -9 -4 -18 7 -21 14 -7 14 6 0 13 -4 16 -10z m-1535 -4 c0 -2 -7 -7 -16 -10
-8 -3 -12 -2 -9 4 6 10 25 14 25 6z m1895 -294 c-6 -7 -35 18 -35 31 0 5 9 2
20 -8 11 -10 18 -20 15 -23z m-2255 -16 c0 -2 -8 -10 -17 -17 -16 -13 -17 -12
-4 4 13 16 21 21 21 13z m2204 -5 c3 -5 -1 -11 -9 -14 -9 -4 -12 -1 -8 9 6 16
10 17 17 5z m83 -18 c-8 -7 -37 9 -31 19 3 5 12 4 20 -3 8 -6 13 -14 11 -16z
m28 -33 c10 -11 16 -20 13 -20 -3 0 -13 9 -23 20 -10 11 -16 20 -13 20 3 0 13
-9 23 -20z m-2389 -38 c-17 -16 -18 -16 -5 5 7 12 15 20 18 17 3 -2 -3 -12
-13 -22z m1419 -132 c80 -25 175 -71 223 -107 17 -13 37 -21 42 -18 6 4 9 3 8
-2 -1 -4 22 -33 51 -63 139 -144 216 -314 228 -500 8 -138 -23 -286 -84 -398
-13 -23 -21 -48 -17 -54 4 -7 3 -8 -4 -4 -6 3 -16 -2 -21 -12 -6 -11 -26 -38
-46 -61 -19 -24 -32 -48 -28 -54 3 -7 2 -9 -2 -4 -11 10 -46 -23 -38 -36 4 -6
1 -7 -6 -2 -18 11 -65 -36 -49 -48 9 -6 7 -7 -5 -3 -11 3 -30 -2 -45 -12 -92
-64 -223 -109 -351 -122 -159 -15 -310 18 -448 96 -87 50 -92 52 -69 25 17
-18 17 -21 3 -15 -9 3 -18 10 -18 15 -1 5 -2 13 -3 17 0 5 -27 32 -59 62 -137
126 -232 330 -244 519 -9 159 37 340 118 458 16 23 27 47 26 55 -2 7 -2 9 1 5
2 -5 25 13 51 40 124 128 249 200 416 238 90 21 281 13 370 -15z m-432 13 c-7
-2 -19 -2 -25 0 -7 3 -2 5 12 5 14 0 19 -2 13 -5z m1537 -49 c0 -8 -19 -13
-24 -6 -3 5 1 9 9 9 8 0 15 -2 15 -3z m-1830 -95 c12 -8 10 -9 -7 -4 -24 7
-33 -9 -10 -18 9 -4 9 -6 0 -6 -15 -1 -26 16 -18 29 8 13 16 12 35 -1z m1071
-46 c13 -16 12 -17 -3 -4 -10 7 -18 15 -18 17 0 8 8 3 21 -13z m72 -40 c-4
-10 -9 -11 -19 -2 -18 15 -18 15 5 15 11 0 17 -5 14 -13z m-2026 -35 c-3 -8
-6 -5 -6 6 -1 11 2 17 5 13 3 -3 4 -12 1 -19z m-40 -170 c-3 -8 -6 -5 -6 6 -1
11 2 17 5 13 3 -3 4 -12 1 -19z m2890 0 c-3 -8 -6 -5 -6 6 -1 11 2 17 5 13 3
-3 4 -12 1 -19z m-670 -250 c-3 -8 -6 -5 -6 6 -1 11 2 17 5 13 3 -3 4 -12 1
-19z m0 -60 c-3 -7 -5 -2 -5 12 0 14 2 19 5 13 2 -7 2 -19 0 -25z m0 -100 c-3
-8 -6 -5 -6 6 -1 11 2 17 5 13 3 -3 4 -12 1 -19z m-2260 -120 c-3 -8 -6 -5 -6
6 -1 11 2 17 5 13 3 -3 4 -12 1 -19z m710 -60 c-3 -7 -5 -2 -5 12 0 14 2 19 5
13 2 -7 2 -19 0 -25z m20 0 c-3 -8 -6 -5 -6 6 -1 11 2 17 5 13 3 -3 4 -12 1
-19z m1436 -103 c-3 -9 -8 -14 -10 -11 -3 3 -2 9 2 15 9 16 15 13 8 -4z m-52
-88 c-10 -9 -11 -8 -5 6 3 10 9 15 12 12 3 -3 0 -11 -7 -18z m746 -79 c-3 -8
-6 -5 -6 6 -1 11 2 17 5 13 3 -3 4 -12 1 -19z m-817 -24 c0 -8 -19 -13 -24 -6
-3 5 1 9 9 9 8 0 15 -2 15 -3z m-1878 -116 c-7 -7 -12 -8 -12 -2 0 14 12 26
19 19 2 -3 -1 -11 -7 -17z m2648 18 c0 -2 -8 -10 -17 -17 -16 -13 -17 -12 -4
4 13 16 21 21 21 13z m-955 -26 c-3 -5 -11 -10 -16 -10 -6 0 -7 5 -4 10 3 6
11 10 16 10 6 0 7 -4 4 -10z m916 -37 c-12 -20 -14 -14 -5 12 4 9 9 14 11 11
3 -2 0 -13 -6 -23z m-1581 3 c0 -2 -7 -7 -16 -10 -8 -3 -12 -2 -9 4 6 10 25
14 25 6z m167 -52 c-3 -3 -12 -4 -19 -1 -8 3 -5 6 6 6 11 1 17 -2 13 -5z
m1373 -28 c0 -2 -8 -10 -17 -17 -16 -13 -17 -12 -4 4 13 16 21 21 21 13z
m-2480 -31 c7 -9 8 -15 2 -15 -5 0 -12 7 -16 15 -3 8 -4 15 -2 15 2 0 9 -7 16
-15z m94 -80 c-4 -8 -11 -12 -16 -9 -6 4 -5 10 3 15 19 12 19 11 13 -6z m2206
-105 c0 -5 -2 -10 -4 -10 -3 0 -8 5 -11 10 -3 6 -1 10 4 10 6 0 11 -4 11 -10z
m-146 -128 c2 -4 -4 -8 -14 -8 -10 0 -16 4 -14 8 3 4 9 8 14 8 5 0 11 -4 14
-8z m-1853 -19 c13 -16 12 -17 -3 -4 -10 7 -18 15 -18 17 0 8 8 3 21 -13z
m1680 -100 c13 -16 12 -17 -3 -4 -10 7 -18 15 -18 17 0 8 8 3 21 -13z m-241
-248 c0 -5 -5 -3 -10 5 -5 8 -10 20 -10 25 0 6 5 3 10 -5 5 -8 10 -19 10 -25z
m-1243 -217 c-3 -8 -6 -5 -6 6 -1 11 2 17 5 13 3 -3 4 -12 1 -19z m996 -303
c-3 -9 -8 -14 -10 -11 -3 3 -2 9 2 15 9 16 15 13 8 -4z m-85 -170 c-3 -3 -9 2
-12 12 -6 14 -5 15 5 6 7 -7 10 -15 7 -18z m-741 -127 c-3 -8 -6 -5 -6 6 -1
11 2 17 5 13 3 -3 4 -12 1 -19z m576 -103 c-3 -9 -8 -14 -10 -11 -3 3 -2 9 2
15 9 16 15 13 8 -4z m-213 -341 c0 -2 -9 0 -20 6 -11 6 -20 13 -20 16 0 2 9 0
20 -6 11 -6 20 -13 20 -16z"/>
<path d="M14676 5689 c-262 -30 -576 -133 -799 -261 -79 -46 -124 -81 -85 -66
8 4 15 0 15 -7 0 -11 -5 -11 -19 -4 -16 8 -28 5 -61 -18 -121 -81 -309 -257
-394 -368 -21 -27 -46 -59 -56 -69 -10 -12 -15 -28 -11 -40 3 -14 2 -17 -4 -8
-6 10 -15 3 -34 -25 -42 -63 -88 -143 -88 -152 0 -5 -7 -14 -16 -22 -8 -7 -13
-21 -11 -31 3 -10 2 -16 -3 -13 -9 6 -68 -122 -109 -238 -149 -424 -155 -938
-15 -1334 14 -40 30 -71 34 -68 5 3 6 -4 3 -14 -10 -39 148 -319 243 -429 28
-33 39 -40 46 -30 6 9 8 7 3 -8 -6 -24 18 -50 36 -38 8 5 9 3 4 -5 -9 -16 54
-83 73 -76 7 2 10 1 7 -4 -5 -9 63 -81 77 -81 4 0 13 -6 20 -13 25 -25 139
-99 215 -139 329 -174 696 -232 1123 -177 169 22 472 91 478 109 2 5 8 8 12 5
14 -9 190 67 183 78 -3 6 -1 7 6 3 11 -7 114 40 188 85 l32 20 -31 64 c-18 35
-35 62 -40 59 -4 -3 -5 1 -3 9 8 20 -62 167 -79 167 -8 0 -41 -15 -73 -34 -78
-45 -270 -120 -385 -150 -51 -13 -151 -34 -223 -46 -115 -20 -154 -22 -330
-17 -204 6 -273 16 -423 66 -130 42 -284 127 -378 207 -28 24 -55 40 -59 36
-5 -4 -5 -2 -2 4 3 6 -16 32 -42 58 -27 27 -51 44 -53 39 -3 -4 -4 -3 -2 3 4
16 -92 145 -101 136 -5 -4 -5 -1 -1 6 11 18 -4 37 -16 21 -8 -11 -8 -10 -4 4
3 11 -12 53 -38 105 -188 376 -217 931 -70 1345 40 110 111 253 170 342 55 83
75 107 149 187 35 38 43 53 39 75 -3 20 -2 24 5 13 5 -8 7 -18 5 -22 -12 -19
14 -6 37 18 48 52 208 164 310 218 369 194 836 237 1203 111 54 -19 104 -32
109 -28 6 3 7 2 4 -4 -7 -11 100 -66 114 -57 5 3 8 1 7 -4 -4 -14 93 -83 105
-75 6 3 7 1 4 -4 -9 -14 19 -37 34 -27 7 4 9 3 6 -3 -6 -10 89 -111 99 -105 3
2 9 0 12 -4 4 -4 1 -4 -5 0 -22 12 -14 -4 24 -49 33 -40 53 -49 53 -24 0 6 -5
7 -12 3 -7 -5 -8 -3 -3 5 5 9 10 10 18 2 7 -7 6 -15 -3 -25 -10 -13 -7 -24 18
-63 118 -185 184 -442 186 -723 1 -174 -14 -279 -56 -405 -29 -86 -105 -209
-163 -263 -27 -26 -49 -51 -47 -55 1 -5 -2 -6 -7 -3 -5 3 -30 -3 -56 -14 -54
-23 -134 -26 -173 -6 -41 21 -69 81 -83 177 -11 74 -9 162 14 625 15 296 29
558 32 582 6 50 3 51 -135 83 -113 26 -408 37 -546 19 -201 -25 -408 -94 -549
-182 -135 -86 -211 -152 -316 -278 -109 -130 -192 -300 -240 -490 -26 -107
-37 -368 -20 -480 21 -133 98 -329 124 -313 6 3 7 1 3 -6 -19 -30 109 -160
211 -213 95 -51 201 -72 318 -65 208 14 387 97 526 245 58 61 141 173 151 204
6 16 28 1 28 -19 0 -16 50 -113 75 -146 11 -16 17 -17 37 -6 13 6 20 8 15 4
-4 -5 0 -17 10 -27 20 -23 6 -24 -19 -1 -10 9 -18 11 -18 5 0 -15 41 -42 53
-35 6 3 7 1 3 -5 -10 -16 98 -68 173 -83 130 -25 326 8 481 82 114 54 160 86
153 107 -4 14 -3 15 5 2 9 -12 14 -12 31 5 25 22 19 34 -6 14 -16 -13 -17 -12
-4 4 8 10 21 15 31 12 32 -10 183 173 249 303 85 167 130 350 138 567 10 270
-28 523 -104 705 -66 156 -197 378 -221 373 -6 -2 -9 3 -7 10 2 6 -16 35 -41
62 -37 41 -46 47 -55 35 -8 -12 -9 -11 -4 6 6 22 -17 50 -33 40 -6 -3 -9 2 -8
12 1 12 -6 16 -24 14 -17 -1 -21 1 -12 6 10 7 1 19 -32 46 -25 20 -51 42 -58
49 -24 23 -143 94 -234 140 -158 79 -341 132 -534 156 -96 12 -381 12 -484 0z
m491 -35 c-3 -3 -12 -4 -19 -1 -8 3 -5 6 6 6 11 1 17 -2 13 -5z m260 -40 c-3
-3 -12 -4 -19 -1 -8 3 -5 6 6 6 11 1 17 -2 13 -5z m-1107 -24 c0 -5 -10 -10
-22 -9 -22 0 -22 1 -3 9 11 5 21 9 23 9 1 1 2 -3 2 -9z m-325 -120 c-3 -5 -12
-10 -18 -10 -7 0 -6 4 3 10 19 12 23 12 15 0z m1805 -40 c-8 -5 -19 -10 -25
-10 -5 0 -3 5 5 10 8 5 20 10 25 10 6 0 3 -5 -5 -10z m-1880 -4 c0 -2 -7 -7
-16 -10 -8 -3 -12 -2 -9 4 6 10 25 14 25 6z m1445 -116 c3 -6 -1 -7 -9 -4 -18
7 -21 14 -7 14 6 0 13 -4 16 -10z m-918 -6 c-3 -3 -12 -4 -19 -1 -8 3 -5 6 6
6 11 1 17 -2 13 -5z m-402 -154 c3 -6 -1 -7 -9 -4 -18 7 -21 14 -7 14 6 0 13
-4 16 -10z m1625 -4 c0 -2 -7 -7 -16 -10 -8 -3 -12 -2 -9 4 6 10 25 14 25 6z
m-1726 -81 c-10 -8 -23 -15 -28 -15 -6 0 -1 7 10 15 10 8 23 15 28 15 6 0 1
-7 -10 -15z m1223 -241 c-3 -3 -12 -4 -19 -1 -8 3 -5 6 6 6 11 1 17 -2 13 -5z
m1208 -14 c3 -5 1 -10 -4 -10 -6 0 -11 5 -11 10 0 6 2 10 4 10 3 0 8 -4 11
-10z m-2837 -145 c-3 -3 -9 2 -12 12 -6 14 -5 15 5 6 7 -7 10 -15 7 -18z
m-108 -255 c0 -5 -5 -10 -11 -10 -5 0 -7 5 -4 10 3 6 8 10 11 10 2 0 4 -4 4
-10z m3067 -52 c-3 -7 -5 -2 -5 12 0 14 2 19 5 13 2 -7 2 -19 0 -25z m-1489
-150 c-15 -345 -26 -458 -53 -543 -51 -161 -155 -304 -259 -355 -58 -28 -154
-37 -198 -20 -129 51 -183 164 -181 380 1 214 63 383 190 521 38 40 67 76 65
81 -1 5 2 6 8 3 6 -4 20 1 30 10 58 52 196 93 320 94 l85 1 -7 -172z m-1625
142 c-3 -12 -8 -19 -11 -16 -5 6 5 36 12 36 2 0 2 -9 -1 -20z m651 -5 c-4 -8
-8 -15 -10 -15 -2 0 -4 7 -4 15 0 8 4 15 10 15 5 0 7 -7 4 -15z m626 -9 c0 -3
-4 -8 -10 -11 -5 -3 -10 -1 -10 4 0 6 5 11 10 11 6 0 10 -2 10 -4z m867 -38
c-3 -8 -6 -5 -6 6 -1 11 2 17 5 13 3 -3 4 -12 1 -19z m-2160 -30 c-3 -8 -6 -5
-6 6 -1 11 2 17 5 13 3 -3 4 -12 1 -19z m594 -21 c-10 -9 -11 -8 -5 6 3 10 9
15 12 12 3 -3 0 -11 -7 -18z m1066 -24 c-3 -10 -5 -2 -5 17 0 19 2 27 5 18 2
-10 2 -26 0 -35z m-517 -7 c0 -2 -8 -10 -17 -17 -16 -13 -17 -12 -4 4 13 16
21 21 21 13z m-1563 -138 c-3 -7 -5 -2 -5 12 0 14 2 19 5 13 2 -7 2 -19 0 -25z
m1423 -68 c-6 -11 -12 -20 -14 -20 -2 0 -2 9 1 20 3 11 9 20 15 20 5 0 4 -9
-2 -20z m2127 -112 c-3 -7 -5 -2 -5 12 0 14 2 19 5 13 2 -7 2 -19 0 -25z
m-1500 -170 c-3 -8 -6 -5 -6 6 -1 11 2 17 5 13 3 -3 4 -12 1 -19z m1446 -83
c-3 -9 -8 -14 -10 -11 -3 3 -2 9 2 15 9 16 15 13 8 -4z m-382 -42 c-12 -20
-14 -14 -5 12 4 9 9 14 11 11 3 -2 0 -13 -6 -23z m-3144 -160 c-3 -10 -5 -2
-5 17 0 19 2 27 5 18 2 -10 2 -26 0 -35z m3450 15 c-3 -8 -6 -5 -6 6 -1 11 2
17 5 13 3 -3 4 -12 1 -19z m-3040 -35 c-3 -10 -5 -4 -5 12 0 17 2 24 5 18 2
-7 2 -21 0 -30z m1463 -83 c-24 -15 -36 -11 -14 4 10 8 21 12 24 10 2 -3 -2
-9 -10 -14z m795 -8 c-3 -3 -11 0 -18 7 -9 10 -8 11 6 5 10 -3 15 -9 12 -12z
m-2648 -24 c-3 -8 -6 -5 -6 6 -1 11 2 17 5 13 3 -3 4 -12 1 -19z m2110 -60
c-3 -7 -5 -2 -5 12 0 14 2 19 5 13 2 -7 2 -19 0 -25z m-410 16 c-3 -3 -12 -4
-19 -1 -8 3 -5 6 6 6 11 1 17 -2 13 -5z m430 -26 c-3 -8 -6 -5 -6 6 -1 11 2
17 5 13 3 -3 4 -12 1 -19z m-2110 -20 c-3 -8 -6 -5 -6 6 -1 11 2 17 5 13 3 -3
4 -12 1 -19z m3233 -2 c0 -2 -7 -9 -15 -16 -13 -11 -14 -10 -9 4 5 14 24 23
24 12z m-2297 -61 c-3 -9 -8 -14 -10 -11 -3 3 -2 9 2 15 9 16 15 13 8 -4z
m1083 -5 c0 -12 -4 -16 -9 -11 -5 5 -6 14 -3 20 10 15 12 14 12 -9z m-5 -53
c-10 -9 -11 -8 -5 6 3 10 9 15 12 12 3 -3 0 -11 -7 -18z m-31 -30 c0 -2 -10
-12 -22 -23 l-23 -19 19 23 c18 21 26 27 26 19z m1039 0 c-2 -1 -13 -9 -24
-17 -19 -14 -19 -14 -6 3 7 9 18 17 24 17 6 0 8 -1 6 -3z m-2526 -72 c-3 -9
-8 -14 -10 -11 -3 3 -2 9 2 15 9 16 15 13 8 -4z m1898 -2 c13 -15 12 -15 -11
-3 -34 17 -36 20 -18 20 9 0 22 -7 29 -17z m-1246 -111 c-3 -3 -11 0 -18 7 -9
10 -8 11 6 5 10 -3 15 -9 12 -12z m-770 -372 c10 -11 16 -20 13 -20 -3 0 -13
9 -23 20 -10 11 -16 20 -13 20 3 0 13 -9 23 -20z m95 -74 c-7 -7 -13 -7 -20 0
-6 6 -3 10 10 10 13 0 16 -4 10 -10z m1767 -112 c-3 -3 -12 -4 -19 -1 -8 3 -5
6 6 6 11 1 17 -2 13 -5z m-820 -20 c-3 -3 -12 -4 -19 -1 -8 3 -5 6 6 6 11 1
17 -2 13 -5z m1243 -118 c0 -2 -7 -7 -16 -10 -8 -3 -12 -2 -9 4 6 10 25 14 25
6z m-1493 -182 c-3 -3 -12 -4 -19 -1 -8 3 -5 6 6 6 11 1 17 -2 13 -5z m880 0
c-3 -3 -12 -4 -19 -1 -8 3 -5 6 6 6 11 1 17 -2 13 -5z"/>
<path d="M5355 5234 c-137 -7 -416 -20 -620 -28 -361 -16 -884 -40 -1115 -51
-63 -3 -205 -10 -315 -15 -110 -5 -418 -19 -685 -31 -267 -12 -485 -22 -486
-23 0 0 2 -61 5 -134 7 -155 -16 -122 189 -262 73 -50 137 -88 142 -85 6 4 9
1 8 -5 -2 -7 87 -72 196 -146 109 -73 208 -140 220 -149 175 -126 283 -194
301 -189 14 4 16 3 7 -4 -10 -6 30 -39 143 -115 86 -59 159 -107 162 -107 3 0
-1 8 -8 18 -13 15 -12 16 3 3 10 -7 16 -17 13 -21 -5 -9 59 -54 93 -64 12 -4
22 -11 22 -16 0 -4 78 -56 173 -116 94 -59 179 -113 188 -121 8 -7 22 -13 30
-13 22 1 71 49 63 62 -4 7 -3 8 5 4 7 -5 34 10 66 36 29 23 99 79 154 123 55
44 98 85 96 92 -2 7 1 10 8 8 7 -3 42 21 78 53 36 31 176 153 311 270 204 177
245 217 240 234 -3 15 -1 19 7 14 6 -4 9 -12 6 -17 -4 -5 -2 -9 2 -9 16 0 74
66 66 75 -5 4 -2 5 5 1 16 -10 74 42 65 57 -3 6 -2 7 3 4 13 -7 19 -3 90 59
33 29 133 116 224 194 281 243 250 208 250 287 0 37 -3 85 -6 106 l-7 37 -71
-1 c-39 -1 -183 -7 -321 -15z m48 -41 c-7 -2 -19 -2 -25 0 -7 3 -2 5 12 5 14
0 19 -2 13 -5z m-526 -9 c-3 -3 -12 -4 -19 -1 -8 3 -5 6 6 6 11 1 17 -2 13 -5z
m723 -269 c-7 -8 -17 -15 -23 -15 -6 0 -2 7 9 15 25 19 30 19 14 0z m-3215
-243 c-3 -3 -11 0 -18 7 -9 10 -8 11 6 5 10 -3 15 -9 12 -12z m141 -81 c0 -15
-3 -17 -13 -9 -7 6 -10 14 -7 19 9 15 20 10 20 -10z m224 -145 c0 -3 -4 -8
-10 -11 -5 -3 -10 -1 -10 4 0 6 5 11 10 11 6 0 10 -2 10 -4z m170 -128 c0 -6
-6 -5 -15 2 -8 7 -15 14 -15 16 0 2 7 1 15 -2 8 -4 15 -11 15 -16z m1990 8 c0
-2 -8 -10 -17 -17 -16 -13 -17 -12 -4 4 13 16 21 21 21 13z m-140 -130 c0 -2
-7 -7 -16 -10 -8 -3 -12 -2 -9 4 6 10 25 14 25 6z m-116 -85 c3 -5 -2 -15 -12
-22 -15 -13 -16 -12 -4 3 11 14 10 17 -5 21 -16 4 -16 5 -1 6 9 0 19 -3 22 -8z
m-1390 -40 c-2 -3 -12 3 -22 13 -16 17 -16 18 5 5 12 -7 20 -15 17 -18z m1356
-1 c0 -5 -5 -10 -11 -10 -5 0 -7 5 -4 10 3 6 8 10 11 10 2 0 4 -4 4 -10z
m-1260 -40 c-8 -5 -19 -10 -25 -10 -5 0 -3 5 5 10 8 5 20 10 25 10 6 0 3 -5
-5 -10z m990 -190 c0 -5 -5 -10 -11 -10 -5 0 -7 5 -4 10 3 6 8 10 11 10 2 0 4
-4 4 -10z m-70 -53 c0 -2 -10 -12 -22 -23 l-23 -19 19 23 c18 21 26 27 26 19z
m-240 -171 c0 -2 -8 -10 -17 -17 -16 -13 -17 -12 -4 4 13 16 21 21 21 13z"/>
<path d="M5749 4713 c-8 -9 -9 -14 -3 -10 6 3 11 0 11 -8 0 -11 -4 -12 -13 -4
-10 8 -35 -8 -105 -68 -51 -43 -133 -113 -183 -155 -50 -42 -91 -83 -91 -90 0
-7 -7 -13 -17 -13 -23 0 -80 -53 -72 -67 4 -7 3 -8 -5 -4 -10 7 -78 -43 -139
-101 -7 -7 -33 -29 -57 -49 -25 -20 -42 -41 -38 -47 3 -5 1 -7 -5 -3 -10 6
-34 -11 -107 -75 -78 -69 -89 -81 -72 -75 11 4 16 2 12 -5 -4 -5 -16 -7 -27
-3 -17 5 -20 3 -15 -10 4 -10 3 -14 -3 -11 -5 3 -83 -56 -174 -132 l-164 -137
81 -54 c45 -30 110 -75 145 -99 35 -24 134 -92 220 -150 86 -58 178 -121 203
-140 48 -34 65 -41 53 -21 -4 7 -3 8 5 4 6 -4 9 -11 6 -16 -8 -12 33 -33 47
-24 6 4 8 3 4 -4 -4 -6 54 -52 145 -114 83 -57 223 -153 312 -214 89 -61 163
-111 163 -110 1 1 -11 276 -27 611 -50 1081 -59 1295 -59 1355 0 62 -8 72 -31
43z m-74 -92 c3 -5 2 -12 -3 -15 -5 -3 -9 1 -9 9 0 17 3 19 12 6z m-45 -36
c-7 -9 -15 -13 -17 -11 -6 6 20 36 26 30 2 -2 -2 -10 -9 -19z m-30 -28 c0 -8
-7 -14 -15 -14 -11 0 -12 4 -4 14 6 7 13 13 15 13 2 0 4 -6 4 -13z m70 -6 c0
-5 -7 -12 -16 -15 -14 -5 -15 -4 -4 9 14 17 20 19 20 6z m-325 -211 c-3 -5
-11 -10 -16 -10 -6 0 -7 5 -4 10 3 6 11 10 16 10 6 0 7 -4 4 -10z m-785 -654
c0 -2 -8 -10 -17 -17 -16 -13 -17 -12 -4 4 13 16 21 21 21 13z m270 -252 c0
-2 -9 0 -20 6 -11 6 -20 13 -20 16 0 2 9 0 20 -6 11 -6 20 -13 20 -16z m101
-71 c13 -16 12 -17 -3 -4 -17 13 -22 21 -14 21 2 0 10 -8 17 -17z m474 -321
c-3 -3 -11 0 -18 7 -9 10 -8 11 6 5 10 -3 15 -9 12 -12z m115 -78 c0 -2 -9 0
-20 6 -11 6 -20 13 -20 16 0 2 9 0 20 -6 11 -6 20 -13 20 -16z"/>
<path d="M2164 4404 c4 -65 15 -319 26 -564 25 -569 48 -1067 56 -1198 l6
-104 23 22 c14 13 21 29 18 39 -4 13 -3 13 5 2 8 -12 20 -6 61 28 54 45 64 59
31 41 -29 -15 -25 -5 6 15 15 9 23 12 20 6 -16 -26 14 -4 166 122 88 72 175
143 192 156 69 54 96 85 83 94 -8 6 -6 7 7 3 20 -7 49 11 40 25 -3 5 1 6 8 4
8 -3 29 10 48 30 19 19 29 35 22 35 -7 0 -12 5 -12 11 0 8 5 7 15 -1 12 -10
19 -10 33 2 9 8 77 63 149 122 73 60 131 112 128 116 -3 5 0 12 6 16 8 4 9 3
5 -4 -13 -21 7 -13 35 14 15 15 25 33 22 40 -3 8 0 14 7 14 6 0 8 -5 4 -11 -4
-7 -2 -10 3 -8 14 6 162 123 162 129 0 3 -153 106 -341 230 -221 147 -347 224
-361 222 -15 -1 -18 1 -9 6 17 12 -211 167 -229 156 -7 -4 -10 -3 -5 4 5 8
-302 224 -423 297 -12 7 -13 -10 -7 -111z m996 -570 c0 -2 -9 0 -20 6 -11 6
-20 13 -20 16 0 2 9 0 20 -6 11 -6 20 -13 20 -16z m86 -62 c-4 -3 -14 2 -24
12 -16 18 -16 18 6 6 13 -6 21 -14 18 -18z m144 -94 c0 -6 -6 -5 -15 2 -8 7
-15 14 -15 16 0 2 7 1 15 -2 8 -4 15 -11 15 -16z m-155 -278 c3 -6 -1 -7 -10
-4 -11 5 -14 2 -9 -12 5 -15 4 -16 -4 -4 -11 15 -7 30 8 30 5 0 12 -4 15 -10z
m-85 -74 c0 -2 -8 -10 -17 -17 -16 -13 -17 -12 -4 4 13 16 21 21 21 13z m20
-10 c0 -2 -8 -10 -17 -17 -16 -13 -17 -12 -4 4 13 16 21 21 21 13z m-115 -85
c3 -5 0 -13 -6 -17 -7 -4 -9 -3 -5 4 3 5 0 13 -6 15 -9 4 -10 6 -1 6 6 1 14
-3 18 -8z m-115 -106 c0 -12 -19 -12 -23 0 -4 9 -1 12 9 8 7 -3 14 -7 14 -8z
m-127 -50 c-3 -9 -8 -14 -10 -11 -3 3 -2 9 2 15 9 16 15 13 8 -4z m35 1 c-7
-8 -15 -12 -17 -11 -5 6 10 25 20 25 5 0 4 -6 -3 -14z m-173 -166 c-3 -5 -12
-10 -18 -10 -7 0 -6 4 3 10 19 12 23 12 15 0z m-90 -78 c-3 -3 -11 0 -18 7 -9
10 -8 11 6 5 10 -3 15 -9 12 -12z m-318 -254 c-3 -8 -6 -5 -6 6 -1 11 2 17 5
13 3 -3 4 -12 1 -19z"/>
<path d="M4255 3444 c-11 -9 -19 -20 -17 -25 1 -6 -2 -8 -7 -5 -5 4 -46 -21
-90 -54 -96 -72 -115 -74 -202 -22 -167 100 -174 104 -193 84 -9 -10 -13 -22
-9 -27 5 -4 2 -5 -5 -1 -7 5 -26 -4 -46 -21 -47 -40 -64 -53 -129 -102 -31
-24 -54 -48 -50 -54 3 -6 1 -7 -5 -3 -14 8 -154 -102 -147 -114 3 -5 0 -12 -6
-16 -8 -4 -9 -3 -5 4 12 20 -4 13 -44 -19 -22 -18 -37 -36 -33 -42 3 -6 1 -7
-5 -3 -6 4 -58 -31 -119 -79 -270 -213 -432 -341 -480 -378 -29 -21 -51 -43
-48 -47 3 -5 0 -12 -6 -16 -8 -4 -9 -3 -5 4 4 7 5 12 2 12 -5 0 -159 -122
-185 -146 -3 -3 33 -2 80 1 115 7 448 23 849 40 442 19 941 42 1335 60 757 36
960 45 997 45 l40 0 -74 48 c-198 130 -206 135 -192 110 4 -8 3 -10 -2 -5 -5
5 -9 13 -9 17 0 14 -464 312 -475 305 -6 -4 -9 -1 -8 7 2 9 -7 12 -27 11 -22
-2 -25 0 -12 5 15 6 -17 31 -155 122 -95 63 -181 114 -190 114 -9 0 -15 3 -12
7 3 6 -102 77 -271 185 -17 10 -23 10 -40 -2z m-500 -64 c-4 -6 -1 -18 7 -27
7 -10 8 -14 1 -10 -6 4 -13 1 -16 -5 -3 -7 -4 1 -2 17 3 35 3 35 11 35 3 0 2
-5 -1 -10z m685 -46 c0 -2 -9 0 -20 6 -11 6 -20 13 -20 16 0 2 9 0 20 -6 11
-6 20 -13 20 -16z m-293 1 c0 -8 -4 -12 -9 -9 -5 3 -6 10 -3 15 9 13 12 11 12
-6z m-32 -34 c-3 -6 -11 -11 -17 -11 -6 0 -6 6 2 15 14 17 26 13 15 -4z m25
-15 c0 -3 -4 -8 -10 -11 -5 -3 -10 -1 -10 4 0 6 5 11 10 11 6 0 10 -2 10 -4z
m450 -78 c0 -6 -6 -5 -15 2 -8 7 -15 14 -15 16 0 2 7 1 15 -2 8 -4 15 -11 15
-16z m150 -78 c-9 -6 -9 -9 -1 -13 8 -4 8 -5 0 -3 -7 1 -13 9 -15 18 -1 11 3
15 13 11 11 -4 12 -8 3 -13z m-1508 -152 c-7 -7 -12 -8 -12 -2 0 6 3 14 7 17
3 4 9 5 12 2 2 -3 -1 -11 -7 -17z m-22 -24 c0 -8 -19 -13 -24 -6 -3 5 1 9 9 9
8 0 15 -2 15 -3z m1855 -94 c3 -5 2 -10 -4 -10 -5 0 -13 5 -16 10 -3 6 -2 10
4 10 5 0 13 -4 16 -10z m275 -110 c0 -5 -7 -7 -15 -4 -8 4 -15 8 -15 10 0 2 7
4 15 4 8 0 15 -4 15 -10z m139 -93 c-2 -1 -13 -9 -24 -17 -19 -14 -19 -14 -6
3 7 9 18 17 24 17 6 0 8 -1 6 -3z m-2774 -87 c-3 -5 -11 -10 -16 -10 -6 0 -7
5 -4 10 3 6 11 10 16 10 6 0 7 -4 4 -10z m-20 -38 c-3 -3 -11 0 -18 7 -9 10
-8 11 6 5 10 -3 15 -9 12 -12z m142 -128 c-3 -3 -12 -4 -19 -1 -8 3 -5 6 6 6
11 1 17 -2 13 -5z"/>
<path d="M9988 3431 c-93 -49 -172 -94 -210 -118 -21 -13 -42 -23 -47 -23 -5
0 -14 -7 -21 -15 -10 -12 10 -47 112 -202 69 -103 130 -198 137 -211 7 -12 16
-20 21 -17 5 3 12 0 16 -6 4 -8 3 -9 -4 -5 -7 4 -12 4 -12 1 0 -13 102 -150
111 -148 4 2 6 -3 3 -11 -3 -8 -1 -17 5 -21 6 -3 11 -1 11 5 0 6 5 8 11 4 8
-4 7 -9 -2 -15 -9 -5 37 -82 174 -289 l187 -281 38 28 c58 44 102 83 169 149
86 86 89 107 28 208 -37 60 -50 74 -60 66 -9 -8 -15 -8 -20 0 -4 6 -1 9 6 8 6
-2 14 3 17 11 3 9 0 11 -8 6 -9 -5 -11 -4 -6 3 9 16 -133 254 -147 245 -6 -3
-7 -1 -3 5 6 10 -23 61 -157 277 -238 385 -251 398 -349 346z m-103 -99 c-3
-3 -11 0 -18 7 -9 10 -8 11 6 5 10 -3 15 -9 12 -12z m287 -34 c-7 -7 -12 -8
-12 -2 0 14 12 26 19 19 2 -3 -1 -11 -7 -17z m208 -308 c0 -5 -2 -10 -4 -10
-3 0 -8 5 -11 10 -3 6 -1 10 4 10 6 0 11 -4 11 -10z m-422 -85 c-3 -3 -9 2
-12 12 -6 14 -5 15 5 6 7 -7 10 -15 7 -18z m490 -40 c-3 -3 -9 2 -12 12 -6 14
-5 15 5 6 7 -7 10 -15 7 -18z m55 -90 c-3 -9 -8 -14 -10 -11 -3 3 -2 9 2 15 9
16 15 13 8 -4z m45 -70 c-3 -3 -9 2 -12 12 -6 14 -5 15 5 6 7 -7 10 -15 7 -18z
m36 -51 c3 -8 2 -12 -4 -9 -6 3 -10 10 -10 16 0 14 7 11 14 -7z m104 -179 c-3
-3 -9 2 -12 12 -6 14 -5 15 5 6 7 -7 10 -15 7 -18z m-380 -70 c-3 -3 -9 2 -12
12 -6 14 -5 15 5 6 7 -7 10 -15 7 -18z m442 -41 c0 -8 -19 -13 -24 -6 -3 5 1
9 9 9 8 0 15 -2 15 -3z m-256 -242 c3 -5 -1 -9 -9 -9 -8 0 -12 4 -9 9 3 4 7 8
9 8 2 0 6 -4 9 -8z"/>
<path d="M17811 3424 c0 -11 3 -14 6 -6 3 7 2 16 -1 19 -3 4 -6 -2 -5 -13z"/>
<path d="M17802 3310 c0 -14 2 -19 5 -12 2 6 2 18 0 25 -3 6 -5 1 -5 -13z"/>
<path d="M7212 3190 c0 -14 2 -19 5 -12 2 6 2 18 0 25 -3 6 -5 1 -5 -13z"/>
<path d="M17792 3140 c0 -19 2 -27 5 -17 2 9 2 25 0 35 -3 9 -5 1 -5 -18z"/>
<path d="M7212 3115 c0 -16 2 -22 5 -12 2 9 2 23 0 30 -3 6 -5 -1 -5 -18z"/>
<path d="M17783 2955 c0 -44 2 -61 4 -37 2 23 2 59 0 80 -2 20 -4 1 -4 -43z"/>
<path d="M7193 2840 c0 -25 2 -35 4 -22 2 12 2 32 0 45 -2 12 -4 2 -4 -23z"/>
<path d="M17765 2770 c-4 -17 -5 -34 -2 -36 2 -3 7 10 11 27 8 42 0 50 -9 9z"/>
<path d="M7181 2703 c1 -53 6 -49 11 10 2 20 0 37 -4 37 -4 0 -8 -21 -7 -47z"/>
<path d="M17746 2560 c-4 -52 -10 -106 -11 -120 -2 -14 -6 -54 -10 -90 -8 -85
-50 -391 -76 -555 -20 -126 -40 -220 -114 -525 -19 -80 -37 -156 -40 -170 -4
-18 -2 -15 9 8 14 29 29 51 76 109 6 7 10 16 10 21 0 4 21 24 48 44 26 20 63
52 83 70 20 18 49 40 65 48 16 8 31 18 34 21 10 13 70 39 87 39 10 0 29 7 42
16 20 14 54 16 237 15 118 0 214 3 214 7 0 13 386 22 1350 32 465 6 901 14
970 20 69 5 220 14 335 20 116 6 246 15 290 20 44 6 125 13 180 15 55 3 119 7
143 10 24 3 51 1 60 -4 9 -4 31 -11 49 -14 l31 -6 7 60 c4 33 5 63 2 66 -3 3
-59 -2 -124 -11 -185 -25 -284 -35 -488 -51 -552 -43 -840 -53 -1840 -65 -445
-6 -940 -15 -1100 -20 -159 -5 -362 -10 -450 -10 l-160 0 0 49 c0 27 3 47 8
44 6 -4 12 56 8 80 -1 5 3 25 8 45 15 57 32 209 32 287 0 40 3 64 8 56 5 -7 6
11 3 40 -4 41 -2 50 8 44 9 -5 11 -4 6 4 -4 7 0 92 9 189 9 97 15 195 13 217
-2 27 -6 9 -12 -55z"/>
<path d="M7170 2595 c0 -48 -15 -193 -51 -495 -66 -553 -151 -969 -263 -1290
-56 -160 -90 -197 -221 -244 -359 -128 -929 -210 -1840 -266 -300 -18 -469
-24 -1430 -50 -701 -19 -1729 -64 -1809 -78 l-38 -7 43 -24 c47 -27 64 -28
282 -23 76 1 116 6 112 12 -3 5 3 10 15 10 14 0 19 -4 14 -12 -5 -8 -2 -9 12
-3 10 4 120 10 244 11 124 2 231 6 238 9 8 3 71 7 141 10 522 21 653 25 659
21 4 -2 111 0 237 5 127 4 313 11 415 14 102 3 203 7 225 10 22 3 166 7 320
10 154 3 348 12 430 20 83 8 191 17 240 20 436 26 594 38 620 45 17 5 57 12
90 15 66 6 179 21 265 37 30 5 71 11 90 14 19 3 44 9 55 14 11 5 40 11 65 14
50 5 76 10 123 25 202 61 237 75 237 87 0 8 7 17 15 20 8 4 12 10 9 15 -3 5 2
9 10 9 9 0 25 17 36 37 27 51 43 75 56 88 5 5 22 26 36 46 38 52 133 144 203
197 33 25 71 55 85 67 14 12 70 37 125 55 l100 33 1445 -7 c966 -5 1491 -4
1583 3 76 6 253 14 393 17 140 4 254 11 254 16 0 4 27 8 60 8 75 0 257 18 290
30 14 4 59 13 100 20 41 6 102 16 135 22 85 14 216 12 226 -4 7 -10 9 -10 9 2
0 13 1 13 11 0 8 -11 9 6 6 63 -2 42 -7 80 -10 83 -3 3 -40 -6 -82 -20 -42
-14 -113 -33 -158 -41 -45 -9 -102 -20 -127 -26 -134 -28 -438 -62 -755 -84
-460 -32 -938 -39 -1805 -26 -454 6 -1066 12 -1360 12 -294 0 -542 3 -550 7
-16 7 -18 25 -8 52 8 20 37 225 58 410 5 47 13 114 18 150 5 36 7 74 5 85 -4
15 -2 17 5 6 8 -10 10 -5 10 20 -1 19 5 79 11 134 7 55 14 138 17 185 3 47 9
99 14 115 10 36 25 335 16 335 -3 0 -6 -20 -6 -45z"/>
<path d="M27581 1454 c0 -11 3 -14 6 -6 3 7 2 16 -1 19 -3 4 -6 -2 -5 -13z"/>
<path d="M27553 1375 c-3 -9 -3 -18 -1 -21 3 -3 8 4 11 16 6 23 -1 27 -10 5z"/>
<path d="M27511 1254 c0 -11 3 -14 6 -6 3 7 2 16 -1 19 -3 4 -6 -2 -5 -13z"/>
<path d="M27456 1115 c-9 -26 -7 -32 5 -12 6 10 9 21 6 23 -2 3 -7 -2 -11 -11z"/>
<path d="M27426 1045 c-3 -9 -6 -22 -5 -28 0 -7 5 -1 10 12 5 13 8 26 5 28 -2
2 -6 -3 -10 -12z"/>
<path d="M27356 889 c-31 -61 -61 -116 -67 -122 -6 -7 -19 -26 -29 -43 -35
-60 -172 -104 -420 -134 -142 -18 -790 -24 -1061 -11 -480 24 -803 51 -1439
122 -245 27 -510 56 -590 64 -80 8 -210 22 -290 31 -428 45 -1210 114 -1288
114 -44 -1 -53 -3 -39 -11 9 -5 22 -7 29 -3 6 4 8 3 5 -3 -4 -5 4 -15 16 -21
28 -14 182 -36 200 -29 8 3 19 1 25 -5 6 -6 52 -10 111 -9 64 1 119 -3 153
-13 32 -10 105 -17 185 -18 73 -2 133 -6 133 -10 0 -10 47 -16 170 -23 120 -6
254 -19 355 -34 39 -5 151 -15 250 -21 99 -6 200 -15 225 -21 25 -5 65 -11 90
-14 142 -12 255 -27 268 -34 8 -5 44 -6 79 -3 49 4 67 1 74 -9 7 -11 9 -11 9
-1 0 8 5 10 12 6 11 -7 203 -33 268 -36 14 -1 81 -7 150 -14 118 -13 208 -20
536 -46 78 -6 160 -9 182 -6 26 4 45 2 51 -6 13 -15 135 -19 666 -20 306 0
433 4 540 16 77 9 151 19 165 23 66 18 171 78 161 92 -2 3 6 17 19 30 13 13
20 30 16 39 -3 8 -2 13 3 9 14 -8 54 53 56 87 2 16 9 37 18 46 15 17 69 144
63 149 -1 2 -28 -47 -60 -108z"/>
<path d="M17425 931 c-3 -11 -19 -31 -35 -44 -16 -14 -26 -28 -22 -32 4 -5 2
-5 -5 -2 -6 4 -33 -4 -60 -17 -162 -80 -540 -163 -1013 -220 -517 -63 -988
-95 -1810 -121 -875 -28 -2016 -81 -2160 -101 -38 -5 -42 -7 -25 -17 11 -5 22
-13 25 -17 21 -28 55 -31 278 -20 125 6 250 13 277 16 28 3 154 9 280 14 127
4 311 13 410 19 221 13 623 29 1011 40 160 4 296 11 302 14 5 4 126 7 268 8
142 0 265 4 273 8 15 8 102 14 366 27 61 3 128 9 150 14 22 5 83 12 135 15
160 10 379 36 477 56 28 5 73 12 100 15 48 4 119 15 223 35 48 10 226 54 360
91 25 7 55 23 67 35 12 13 27 23 33 23 5 0 9 3 8 8 -2 4 0 7 4 7 4 0 18 16 32
35 16 24 20 37 12 42 -8 6 -8 8 1 8 13 0 58 68 50 76 -3 3 -8 -4 -12 -15z"/>
</g>
</svg>
