<svg id="visual" viewBox="0 0 900 600" width="900" height="600" xmlns="http://www.w3.org/2000/svg" xmlns:xlink="http://www.w3.org/1999/xlink" version="1.1"><g><g transform="translate(568 409)"><path d="M0 -51.4L36.3 -36.3L51.4 0L36.3 36.3L0 51.4L-36.3 36.3L-51.4 0L-36.3 -36.3Z" fill="none" stroke="#62caec" stroke-width="2"></path></g><g transform="translate(727 259)"><path d="M0 -22L15.6 -15.6L22 0L15.6 15.6L0 22L-15.6 15.6L-22 0L-15.6 -15.6Z" fill="none" stroke="#62caec" stroke-width="2"></path></g><g transform="translate(688 23)"><path d="M0 -15L10.6 -10.6L15 0L10.6 10.6L0 15L-10.6 10.6L-15 0L-10.6 -10.6Z" stroke="#62caec" fill="none" stroke-width="2"></path></g><g transform="translate(90 354)"><path d="M0 -36L25.5 -25.5L36 0L25.5 25.5L0 36L-25.5 25.5L-36 0L-25.5 -25.5Z" stroke="#62caec" fill="none" stroke-width="2"></path></g><g transform="translate(577 246)"><path d="M0 -35L24.7 -24.7L35 0L24.7 24.7L0 35L-24.7 24.7L-35 0L-24.7 -24.7Z" stroke="#62caec" fill="none" stroke-width="2"></path></g><g transform="translate(74 153)"><path d="M0 -30L21.2 -21.2L30 0L21.2 21.2L0 30L-21.2 21.2L-30 0L-21.2 -21.2Z" stroke="#62caec" fill="none" stroke-width="2"></path></g><g transform="translate(351 332)"><path d="M0 -35L24.7 -24.7L35 0L24.7 24.7L0 35L-24.7 24.7L-35 0L-24.7 -24.7Z" stroke="#62caec" fill="none" stroke-width="2"></path></g><g transform="translate(448 426)"><path d="M0 -29L20.5 -20.5L29 0L20.5 20.5L0 29L-20.5 20.5L-29 0L-20.5 -20.5Z" stroke="#62caec" fill="none" stroke-width="2"></path></g><g transform="translate(281 543)"><path d="M0 -14L9.9 -9.9L14 0L9.9 9.9L0 14L-9.9 9.9L-14 0L-9.9 -9.9Z" stroke="#62caec" fill="none" stroke-width="2"></path></g><g transform="translate(898 281)"><path d="M0 -28L19.8 -19.8L28 0L19.8 19.8L0 28L-19.8 19.8L-28 0L-19.8 -19.8Z" stroke="#62caec" fill="none" stroke-width="2"></path></g><g transform="translate(48 596)"><path d="M0 -22L15.6 -15.6L22 0L15.6 15.6L0 22L-15.6 15.6L-22 0L-15.6 -15.6Z" stroke="#62caec" fill="none" stroke-width="2"></path></g><g transform="translate(451 109)"><path d="M0 -25L17.7 -17.7L25 0L17.7 17.7L0 25L-17.7 17.7L-25 0L-17.7 -17.7Z" stroke="#62caec" fill="none" stroke-width="2"></path></g><g transform="translate(225 278)"><path d="M0 -19L13.4 -13.4L19 0L13.4 13.4L0 19L-13.4 13.4L-19 0L-13.4 -13.4Z" stroke="#62caec" fill="none" stroke-width="2"></path></g><g transform="translate(183 411)"><path d="M0 -34L24 -24L34 0L24 24L0 34L-24 24L-34 0L-24 -24Z" stroke="#62caec" fill="none" stroke-width="2"></path></g></g></svg>